<svg width="48" height="48" viewBox="0 0 48 48" fill="none" xmlns="http://www.w3.org/2000/svg">
<path fill-rule="evenodd" clip-rule="evenodd" d="M4.05461 14.2189C4.33422 11.8885 5.51996 10.0244 6.42054 9.13637L12.1189 3.51734L12.5462 3.09607L12.9734 3.51734L22.4912 12.9025L22.9185 13.3238L22.4912 13.7451L17.3103 18.8538L29.7318 31.1021L34.9127 25.9934L35.3433 25.5688L35.7705 25.9968L44.4854 34.7272L44.9059 35.1484L44.482 35.5664L37.8977 42.0589C35.7464 44.1802 33.1888 44.3134 30.9479 43.6533C28.7355 43.0017 26.7797 41.5709 25.6464 40.4534L25.6448 40.4518L7.16282 22.0905L7.16202 22.0897C4.42733 19.3926 3.77065 16.5856 4.05461 14.2189ZM5.25463 14.3589C5.01429 16.3621 5.54266 18.8077 8.0173 21.2479L8.0189 21.2495L26.5009 39.6109L26.5017 39.6117C27.5393 40.6346 29.3278 41.9326 31.2938 42.5117C33.2317 43.0825 35.2871 42.9481 37.0433 41.2164L43.2036 35.1417L35.3365 27.2606L30.159 32.3659L29.7318 32.7872L29.3046 32.3659L16.0287 19.2751L15.6015 18.8538L16.0287 18.4325L21.2095 13.3238L12.5462 4.78117L7.27499 9.97885C6.54746 10.6963 5.49935 12.3193 5.25463 14.3589Z" fill="black"/>
</svg>
