<!DOCTYPE svg PUBLIC "-//W3C//DTD SVG 1.1//EN" "http://www.w3.org/Graphics/SVG/1.1/DTD/svg11.dtd">
<!-- Uploaded to: SVG Repo, www.svgrepo.com, Transformed by: SVG Repo Mixer Tools -->
<svg width="800px" height="800px" viewBox="0 0 24 24" data-name="025_SCIENCE" id="_025_SCIENCE" xmlns="http://www.w3.org/2000/svg" fill="#006275" stroke="#006275">
<g id="SVGRepo_bgCarrier" stroke-width="0"/>
<g id="SVGRepo_tracerCarrier" stroke-linecap="round" stroke-linejoin="round"/>
<g id="SVGRepo_iconCarrier">
<defs>
<style>.cls-1{fill:#333;}</style>
</defs>
<circle class="cls-1" cx="5" cy="20" r="2"/>
<circle class="cls-1" cx="10" cy="4" r="2"/>
<circle class="cls-1" cx="15" cy="20" r="2"/>
<circle class="cls-1" cx="20" cy="20" r="2"/>
<circle class="cls-1" cx="20" cy="10" r="2"/>
<circle class="cls-1" cx="20" cy="4" r="2"/>
<path class="cls-1" d="M10,21H5a1,1,0,0,1,0-2H9V5a1,1,0,0,1,2,0V20A1,1,0,0,1,10,21Z"/>
<circle class="cls-1" cx="5" cy="14" r="2"/>
<circle class="cls-1" cx="5" cy="4" r="2"/>
<path class="cls-1" d="M5,14a1,1,0,0,1-1-1V5A1,1,0,0,1,6,5v8A1,1,0,0,1,5,14Z"/>
<path class="cls-1" d="M20,20a1,1,0,0,1-1-1V10a1,1,0,0,1,2,0v9A1,1,0,0,1,20,20Z"/>
<path class="cls-1" d="M15,20a1,1,0,0,1-1-1V4a1,1,0,0,1,1-1h5a1,1,0,0,1,0,2H16V19A1,1,0,0,1,15,20Z"/>
</g>
</svg>