<svg width="48" height="48" viewBox="0 0 48 48" fill="none" xmlns="http://www.w3.org/2000/svg">
<path fill-rule="evenodd" clip-rule="evenodd" d="M16 2H16.75H31.25H32V2.75V3.55902H41.25H42V4.30902V45.2502V46.0002H41.25H6.75H6V45.2502V4.30902V3.55902H6.75H16V2.75V2ZM32 7.25V5.05902H40.5V44.5002H7.5V5.05902H16V7.25V8H16.75H31.25H32V7.25ZM17.5 3.5V6.5H30.5V3.5H17.5ZM13 16H13.75H34.25H35V17.5H34.25H13.75H13V16ZM13.75 23H13V24.5H13.75H34.25H35V23H34.25H13.75ZM13.75 30H13V31.5H13.75H27.25H28V30H27.25H13.75Z" fill="black"/>
</svg>
