<svg width="41" height="41" viewBox="0 0 41 41" fill="none" xmlns="http://www.w3.org/2000/svg">
<mask id="mask0_75_4887" style="mask-type:luminance" maskUnits="userSpaceOnUse" x="-4" y="-4" width="49" height="49">
<path d="M44.916 -3.91764H-3.91677V44.9152H44.916V-3.91764Z" fill="white"/>
</mask>
<g mask="url(#mask0_75_4887)">
<path d="M29.3276 23.7552C29.3276 23.7552 26.3868 22.2938 25.8736 22.116C25.6686 22.022 25.4475 21.9684 25.2223 21.958C25.0231 21.9623 24.8286 22.0193 24.6587 22.1234C24.4887 22.2275 24.3495 22.3749 24.2552 22.5505C23.9591 22.9652 23.2444 23.8297 22.9878 24.126C22.9545 24.1645 22.7932 24.3871 22.7157 24.3871L22.1828 24.2292C19.8687 23.0337 17.8983 21.2662 16.4591 19.0944C16.4491 19.0555 16.4491 19.0148 16.4591 18.9759L16.6368 18.7785C16.8042 18.6026 16.9624 18.418 17.1104 18.2254L17.3473 17.9489C17.5422 17.7242 17.7019 17.4712 17.8209 17.1985L17.8613 17.0603C17.9634 16.8653 17.9762 16.6484 17.9762 16.4283C17.9762 16.2081 17.9229 15.9913 17.8209 15.7963C17.8209 15.658 16.538 12.7155 16.4196 12.3995C16.1038 11.6687 15.6893 11.3133 15.1367 11.3133H14.8209C13.9931 11.3629 13.1824 11.5707 12.4327 11.9255C11.8095 12.4268 11.3157 13.0705 10.9928 13.8026C10.67 14.5346 10.5275 15.3335 10.5775 16.132C10.7024 17.9857 11.6071 19.8171 12.4888 21.2076L12.5512 21.3261C14.4805 24.3886 17.2576 26.8243 20.5446 28.337C22.0588 29.0665 23.7021 29.4894 25.3802 29.5812H26.1696H26.3078C27.0475 29.4492 27.7484 29.1537 28.3596 28.7164C28.9708 28.2791 29.4768 27.7109 29.8407 27.0533C30.2181 26.2307 30.3017 25.3035 30.0776 24.4266C29.8898 24.1418 29.6314 23.9104 29.3276 23.7552Z" stroke="black" stroke-width="1.5" stroke-linecap="round" stroke-linejoin="round"/>
<path d="M17.1463 39.9488C19.8658 40.4047 22.7494 40.3247 25.42 39.6377C29.5049 38.5856 33.1455 36.2516 35.808 32.9781C38.4706 29.7045 40.0149 25.6636 40.2148 21.4477C40.4146 17.2318 39.2594 13.0627 36.9184 9.55171C34.5775 6.04072 31.174 3.37252 27.207 1.93826C23.2399 0.504006 18.918 0.379181 14.8749 1.58207C10.8318 2.78496 7.28016 5.25231 4.74069 8.62234C2.20125 11.9924 0.807599 16.0878 0.764064 20.3083C0.72053 24.5287 2.02941 28.652 4.49881 32.0738C4.56823 32.1578 4.61397 32.2588 4.6313 32.3665C4.64872 32.4741 4.637 32.5844 4.59745 32.686L2.62378 38.2354C2.61401 38.3047 2.62188 38.3752 2.64663 38.4405C2.67139 38.5059 2.71225 38.5639 2.76541 38.6092C2.81857 38.6545 2.88231 38.6857 2.95072 38.6998C3.01912 38.7138 3.08997 38.7103 3.15668 38.6897L9.15672 36.8333C9.29093 36.8332 9.42188 36.8746 9.53176 36.9518C11.8328 38.472 14.4268 39.4931 17.1463 39.9488Z" stroke="black" stroke-width="1.5" stroke-miterlimit="10"/>
</g>
</svg>
