<svg width="48" height="48" viewBox="0 0 48 48" fill="none" xmlns="http://www.w3.org/2000/svg">
<path fill-rule="evenodd" clip-rule="evenodd" d="M9.8 4H9.2V4.6V9.2H4.6H4V9.8V37.8V38.4H4.6H16.5769L26.9999 44.5132L27.9035 45.0431V43.9956V38.4H38.2H38.8V37.8V32.4H43.4H44V31.8V4.6V4H43.4H9.8ZM38.8 31.2H42.8V5.2H10.4V9.2H38.2H38.8V9.8V31.2ZM37.6 10.4V37.2H27.3035H26.7035V37.8V42.9482L17.0434 37.2825L16.9028 37.2H16.7398H5.2V10.4H37.6ZM11.6 20H11V21.2H11.6H31.2H31.8V20H31.2H11.6ZM11.6 26H11V27.2H11.6H24H24.6V26H24H11.6Z" fill="black"/>
</svg>
