<svg width="48" height="48" viewBox="0 0 48 48" fill="none" xmlns="http://www.w3.org/2000/svg">
<path fill-rule="evenodd" clip-rule="evenodd" d="M40.2989 2.80305C40.3387 3.00022 40.2771 3.20426 40.1348 3.34642L32.8875 10.5861L37.4147 15.1134L44.6545 7.87367C44.7965 7.73162 45.0003 7.67008 45.1972 7.70975C45.3941 7.74942 45.5582 7.88502 45.6341 8.07102C47.1705 11.8313 46.4074 16.3058 43.359 19.3542C40.5221 22.1911 36.4501 23.0439 32.8714 21.9165L19.0103 35.7777C19.1346 36.3671 19.2 36.9778 19.2 37.6032C19.2 42.4633 15.2601 46.4032 10.4 46.4032C5.53987 46.4032 1.59998 42.4633 1.59998 37.6032C1.59998 32.7431 5.53987 28.8032 10.4 28.8032C11.0233 28.8032 11.6321 28.8681 12.2198 28.9917L26.0879 15.1237C24.9669 11.5483 25.8211 7.48326 28.6541 4.64997C31.7033 1.59254 36.1778 0.838807 39.9366 2.36607C40.1229 2.4418 40.2589 2.60588 40.2989 2.80305ZM38.6105 3.17291C35.4825 2.25586 31.966 3.02839 29.5036 5.49762L29.503 5.4982C26.9133 8.08798 26.1908 11.8439 27.3399 15.0851C27.4173 15.3032 27.3623 15.5463 27.1987 15.7099L12.8332 30.0753C12.6839 30.2246 12.4672 30.2845 12.2624 30.2329C11.6671 30.083 11.0433 30.0032 10.4 30.0032C6.20262 30.0032 2.79998 33.4058 2.79998 37.6032C2.79998 41.8005 6.20262 45.2032 10.4 45.2032C14.5973 45.2032 18 41.8005 18 37.6032C18 36.9581 17.9197 36.3325 17.7689 35.7357C17.7173 35.5308 17.777 35.3138 17.9265 35.1645L32.2856 20.8053C32.4494 20.6415 32.6929 20.5866 32.9112 20.6644C36.1552 21.8197 39.9174 21.0988 42.5105 18.5057C44.9742 16.0419 45.7516 12.524 44.8289 9.3963L37.839 16.3862C37.6047 16.6205 37.2248 16.6205 36.9905 16.3862L31.6145 11.0102C31.5019 10.8977 31.4387 10.7449 31.4387 10.5858C31.4388 10.4266 31.5021 10.274 31.6147 10.1614L38.6105 3.17291ZM14.0001 37.6033C14.0001 35.6151 12.3883 34.0033 10.4001 34.0033C8.4119 34.0033 6.8001 35.6151 6.8001 37.6033C6.8001 39.5916 8.4119 41.2033 10.4001 41.2033C12.3883 41.2033 14.0001 39.5916 14.0001 37.6033ZM10.4001 32.8033C13.0511 32.8033 15.2001 34.9524 15.2001 37.6033C15.2001 40.2543 13.0511 42.4033 10.4001 42.4033C7.74914 42.4033 5.6001 40.2543 5.6001 37.6033C5.6001 34.9524 7.74914 32.8033 10.4001 32.8033Z" fill="black"/>
</svg>
